<?xml version="1.0" standalone="no"?>
<!DOCTYPE svg PUBLIC "-//W3C//DTD SVG 20010904//EN"
"http://www.w3.org/TR/2001/REC-SVG-20010904/DTD/svg10.dtd">
<svg version="1.0" xmlns="http://www.w3.org/2000/svg"
width="137.000000pt" height="137.000000pt" viewBox="0 0 137.000000 137.000000"
preserveAspectRatio="xMidYMid meet">
<metadata>
Created by potrace 1.11, written by Peter Selinger 2001-2013
</metadata>
<g transform="translate(0.000000,137.000000) scale(0.100000,-0.100000)"
fill="#000000" stroke="none">
<path d="M560 1360 c-48 -9 -119 -36 -185 -72 -151 -81 -280 -255 -319 -430
-15 -66 -18 -173 -7 -248 35 -235 186 -428 406 -515 93 -37 112 -40 235 -40
118 1 197 22 299 80 298 168 414 554 261 870 -21 44 -51 94 -65 110 -14 17
-38 44 -53 61 -44 50 -202 154 -234 154 -4 0 -19 5 -35 12 -15 6 -35 13 -43
15 -36 9 -219 11 -260 3z"/>
</g>
</svg>
